<svg width="595" height="842" viewBox="0 0 595 842" fill="none" xmlns="http://www.w3.org/2000/svg">
<rect width="595" height="842" fill="url(#paint0_radial_1_2)"/>
<line x1="421" y1="143" x2="421" y2="699" stroke="white" stroke-opacity="0.05" stroke-width="2"/>
<line x1="360" y1="143" x2="360" y2="699" stroke="white" stroke-opacity="0.05" stroke-width="2"/>
<line x1="299" y1="143" x2="299" y2="699" stroke="white" stroke-opacity="0.05" stroke-width="2"/>
<line x1="238" y1="143" x2="238" y2="699" stroke="white" stroke-opacity="0.05" stroke-width="2"/>
<line x1="174" y1="143" x2="174" y2="699" stroke="white" stroke-opacity="0.05" stroke-width="2"/>
<line x1="464.7" y1="361.5" x2="131" y2="361.5" stroke="white" stroke-opacity="0.05" stroke-width="2"/>
<line x1="464.7" y1="300.5" x2="131" y2="300.5" stroke="white" stroke-opacity="0.05" stroke-width="2"/>
<line x1="464.7" y1="239.5" x2="131" y2="239.5" stroke="white" stroke-opacity="0.05" stroke-width="2"/>
<line x1="464.7" y1="178.5" x2="131" y2="178.5" stroke="white" stroke-opacity="0.05" stroke-width="2"/>
<line x1="465" y1="670" x2="131.3" y2="670" stroke="white" stroke-opacity="0.05" stroke-width="2"/>
<line x1="465" y1="609" x2="131.3" y2="609" stroke="white" stroke-opacity="0.05" stroke-width="2"/>
<line x1="465" y1="548" x2="131.3" y2="548" stroke="white" stroke-opacity="0.05" stroke-width="2"/>
<line x1="465" y1="487" x2="131.3" y2="487" stroke="white" stroke-opacity="0.05" stroke-width="2"/>
<line x1="465" y1="423" x2="131.3" y2="423" stroke="white" stroke-opacity="0.05" stroke-width="2"/>
<g clip-path="url(#clip0_1_2)">
<path fill-rule="evenodd" clip-rule="evenodd" d="M249.508 709.99C295.895 736.772 355.209 720.879 381.99 674.492C408.772 628.105 392.879 568.791 346.492 542.01C300.105 515.228 240.791 531.121 214.01 577.508C187.228 623.895 203.121 683.209 249.508 709.99ZM229.483 641.799C226.119 659.375 226.951 675.704 231.923 688.491C213.313 668.828 204.543 641.832 207.691 615.258C209.983 619.392 212.935 623.652 216.442 627.954C220.155 632.506 224.529 637.154 229.483 641.799ZM221.14 624.123C215.395 617.077 211.488 610.471 209.58 604.714C211.578 596.431 214.782 588.292 219.259 580.539C225.635 569.496 233.977 560.296 243.588 553.127C245.878 557.254 248.825 561.506 252.327 565.8C254.471 568.43 256.836 571.092 259.406 573.766C259.854 572.775 260.48 571.863 261.263 571.08C261.955 570.388 262.747 569.819 263.605 569.387C261.213 566.889 259.014 564.411 257.024 561.97C253.517 557.668 250.694 553.53 248.594 549.649C269.241 536.312 294.771 531.728 319.08 537.531C302.097 540.144 283.548 551.162 267.397 568.421C267.495 568.418 267.594 568.417 267.693 568.417H275.879C283.329 561.136 291.166 555.269 298.964 551.015C314.913 542.313 329.827 540.73 341.203 546.079L334.102 558.379C334.322 558.561 334.533 558.753 334.737 558.957C336.308 560.528 337.245 562.616 337.382 564.821L346.404 549.194C356.244 556.514 362.03 569.98 362.457 587.672C362.735 599.151 360.713 612.034 356.3 625.308C350.249 623.48 343.912 621.191 337.4 618.458V625.016C350.139 630.192 362.26 633.721 372.972 635.455C378.441 636.34 383.597 636.766 388.316 636.686C386.912 648.594 383.117 660.418 376.741 671.461C372.264 679.215 366.818 686.06 360.644 691.931C354.704 693.157 347.03 693.077 338.056 691.625C333.571 690.899 328.801 689.837 323.814 688.448C325.431 686.886 327.028 685.263 328.603 683.58C328.551 683.582 328.5 683.583 328.448 683.584C328.401 683.585 328.354 683.585 328.307 683.585H320.121C319.125 684.558 318.123 685.505 317.115 686.427C308.162 683.525 298.644 679.653 288.908 674.86V681.596C296.714 685.323 304.391 688.478 311.771 691.029C306.916 694.959 301.968 698.295 297.036 700.986C281.5 709.462 266.945 711.183 255.687 706.322L262.683 694.203C262.176 693.869 261.7 693.481 261.263 693.045C260.064 691.846 259.235 690.346 258.848 688.723L250.388 703.376C240.068 696.198 233.981 682.49 233.543 664.328C233.407 658.711 233.822 652.759 234.798 646.589C238.444 649.75 242.345 652.894 246.477 655.99V650.247C246.477 649.645 246.536 649.057 246.647 648.488C242.904 645.563 239.385 642.611 236.112 639.66C237.337 634.102 239.001 628.41 241.11 622.664C239.575 622.256 238.16 621.449 237.017 620.307C236.634 619.923 236.288 619.509 235.982 619.069C233.967 624.378 232.311 629.664 231.012 634.869C227.316 631.244 224.011 627.644 221.14 624.123ZM276.921 714.47C303.253 720.755 331.017 714.852 352.457 698.839C347.732 698.921 342.566 698.495 337.087 697.608C331.288 696.67 325.076 695.205 318.577 693.238C305.038 704.939 290.48 712.383 276.921 714.47ZM373.94 629.471C379.419 630.358 384.414 630.733 388.824 630.612C390.051 606.063 381.257 581.661 364.077 563.51C370.602 580.287 369.998 603.165 362.14 626.953C366.246 628.023 370.192 628.865 373.94 629.471Z" fill="url(#paint1_linear_1_2)"/>
<path d="M255.124 601.369H243.001L243 602.078V613.492L255.124 613.492V601.369H267.247V649.861H255.124L255.123 661.984H267.247V686.23H279.37V649.861H291.493V637.738H315.739V674.107H327.862V661.984H339.984L339.985 649.861H352.108V637.738H339.985V649.861H327.862V565H315.739V577.123H303.616V589.246H291.493V601.369L303.615 601.369L303.616 589.246H315.612L315.738 589.246V601.151L315.739 601.369V625.615H291.493L291.493 637.738H279.37V577.123H267.247V589.246H255.124V601.369Z" fill="#E5E1E6"/>
</g>
<path d="M359.863 303.836L325.819 269.965L325.336 270.047V269.69L252.942 198.097L270.814 180.873L260.307 120.636L210.558 182.349C202.112 190.877 200.49 204.83 206.61 215.067L237.701 266.669C242.45 274.584 249.921 279.671 260.346 279.294C282.426 278.513 292.131 278.513 292.131 278.513L359.844 303.817L359.863 303.841V303.836Z" fill="#18B6F6"/>
<path d="M376.682 208.923C381.581 198.812 383.333 189.97 378.497 181.085L371.615 168.421L368.048 161.92L366.658 159.386L366.528 159.531L347.807 127.05C345.488 123.017 342.136 119.675 338.097 117.368C334.057 115.061 329.476 113.871 324.824 113.923L308.405 114.386L259.395 114.516C254.847 114.546 250.384 115.756 246.443 118.027C242.503 120.299 239.219 123.554 236.914 127.475L207.136 186.616L260.428 120.318L330.336 197.19L317.821 209.874L325.292 270.009L325.399 269.878V270.047H325.292L325.437 270.192L331.267 275.873L359.462 303.416C360.645 304.555 362.566 303.184 361.784 301.775L344.351 267.475" fill="#AC7EF4"/>
<path d="M330.5 196.997L260.408 120.511L270.37 180.404L252.532 197.716L325.162 269.898L318.618 209.98L330.5 197.021V196.997V196.997Z" fill="white"/>
<path d="M332.557 424.405H302.375V454.512H292.439V424.405H262.332V414.395H292.439V384.288H302.375V414.395H332.557V424.405Z" fill="white"/>
<defs>
<radialGradient id="paint0_radial_1_2" cx="0" cy="0" r="1" gradientUnits="userSpaceOnUse" gradientTransform="translate(297.5 421) rotate(90) scale(421 297.5)">
<stop stop-color="#251732"/>
<stop offset="1" stop-color="#170F1E"/>
</radialGradient>
<linearGradient id="paint1_linear_1_2" x1="228.485" y1="556" x2="368.485" y2="696" gradientUnits="userSpaceOnUse">
<stop stop-color="#FFE27D"/>
<stop offset="0.505208" stop-color="#64E3FF"/>
<stop offset="1" stop-color="#9192FF"/>
</linearGradient>
<clipPath id="clip0_1_2">
<rect width="194" height="194" fill="white" transform="translate(201 529)"/>
</clipPath>
</defs>
</svg>
